<svg width="635" height="451" viewBox="0 0 635 451" fill="none" xmlns="http://www.w3.org/2000/svg">
<path d="M14 21.5C14 21.5 46.8366 326.907 159 335C276.66 343.49 316.316 13.3577 434 21.5C546.391 29.276 598.5 335 598.5 335" stroke="white" stroke-width="27"/>
<circle cx="301" cy="176" r="161" stroke="#E1FF69" stroke-width="30"/>
<path d="M32.894 410.008V442H26.3022L13.4482 420.555V442H6.85645V410.008H13.4482L26.3242 431.475V410.008H32.894ZM52.0322 415.479L43.3311 442H36.3218L48.209 410.008H52.6694L52.0322 415.479ZM59.2612 442L50.5381 415.479L49.835 410.008H54.3394L66.2925 442H59.2612ZM58.8657 430.091V435.254H41.9688V430.091H58.8657ZM80.8384 410.008V442H74.2686V410.008H80.8384ZM90.6821 410.008V415.171H64.5786V410.008H90.6821ZM101.449 410.008V442H94.8789V410.008H101.449ZM133.902 425.257V426.773C133.902 429.205 133.573 431.387 132.914 433.321C132.254 435.254 131.324 436.902 130.123 438.265C128.922 439.612 127.486 440.645 125.816 441.363C124.161 442.081 122.323 442.439 120.301 442.439C118.294 442.439 116.456 442.081 114.786 441.363C113.131 440.645 111.695 439.612 110.479 438.265C109.264 436.902 108.319 435.254 107.645 433.321C106.986 431.387 106.656 429.205 106.656 426.773V425.257C106.656 422.811 106.986 420.628 107.645 418.709C108.304 416.775 109.234 415.127 110.436 413.765C111.651 412.403 113.087 411.363 114.742 410.645C116.412 409.927 118.25 409.568 120.257 409.568C122.279 409.568 124.117 409.927 125.772 410.645C127.442 411.363 128.878 412.403 130.079 413.765C131.295 415.127 132.232 416.775 132.892 418.709C133.565 420.628 133.902 422.811 133.902 425.257ZM127.245 426.773V425.213C127.245 423.514 127.091 422.02 126.783 420.73C126.476 419.441 126.021 418.357 125.421 417.479C124.82 416.6 124.088 415.94 123.224 415.501C122.359 415.047 121.371 414.82 120.257 414.82C119.144 414.82 118.155 415.047 117.291 415.501C116.441 415.94 115.716 416.6 115.116 417.479C114.53 418.357 114.083 419.441 113.775 420.73C113.468 422.02 113.314 423.514 113.314 425.213V426.773C113.314 428.458 113.468 429.952 113.775 431.255C114.083 432.544 114.537 433.636 115.138 434.529C115.738 435.408 116.471 436.075 117.335 436.529C118.199 436.983 119.188 437.21 120.301 437.21C121.415 437.21 122.403 436.983 123.268 436.529C124.132 436.075 124.857 435.408 125.443 434.529C126.029 433.636 126.476 432.544 126.783 431.255C127.091 429.952 127.245 428.458 127.245 426.773ZM164.686 410.008V442H158.094L145.24 420.555V442H138.648V410.008H145.24L158.116 431.475V410.008H164.686ZM183.824 415.479L175.123 442H168.114L180.001 410.008H184.461L183.824 415.479ZM191.053 442L182.33 415.479L181.627 410.008H186.131L198.084 442H191.053ZM190.658 430.091V435.254H173.761V430.091H190.658ZM221.617 436.858V442H205.511V436.858H221.617ZM207.643 410.008V442H201.051V410.008H207.643ZM262.882 425.257V426.773C262.882 429.205 262.552 431.387 261.893 433.321C261.234 435.254 260.304 436.902 259.103 438.265C257.901 439.612 256.466 440.645 254.796 441.363C253.141 442.081 251.302 442.439 249.281 442.439C247.274 442.439 245.436 442.081 243.766 441.363C242.11 440.645 240.675 439.612 239.459 438.265C238.243 436.902 237.298 435.254 236.625 433.321C235.965 431.387 235.636 429.205 235.636 426.773V425.257C235.636 422.811 235.965 420.628 236.625 418.709C237.284 416.775 238.214 415.127 239.415 413.765C240.631 412.403 242.066 411.363 243.722 410.645C245.392 409.927 247.23 409.568 249.237 409.568C251.258 409.568 253.097 409.927 254.752 410.645C256.422 411.363 257.857 412.403 259.059 413.765C260.274 415.127 261.212 416.775 261.871 418.709C262.545 420.628 262.882 422.811 262.882 425.257ZM256.224 426.773V425.213C256.224 423.514 256.07 422.02 255.763 420.73C255.455 419.441 255.001 418.357 254.4 417.479C253.8 416.6 253.067 415.94 252.203 415.501C251.339 415.047 250.35 414.82 249.237 414.82C248.124 414.82 247.135 415.047 246.271 415.501C245.421 415.94 244.696 416.6 244.095 417.479C243.509 418.357 243.062 419.441 242.755 420.73C242.447 422.02 242.293 423.514 242.293 425.213V426.773C242.293 428.458 242.447 429.952 242.755 431.255C243.062 432.544 243.517 433.636 244.117 434.529C244.718 435.408 245.45 436.075 246.314 436.529C247.179 436.983 248.167 437.21 249.281 437.21C250.394 437.21 251.383 436.983 252.247 436.529C253.111 436.075 253.836 435.408 254.422 434.529C255.008 433.636 255.455 432.544 255.763 431.255C256.07 429.952 256.224 428.458 256.224 426.773ZM285.294 410.008H291.864V431.146C291.864 433.606 291.336 435.679 290.282 437.364C289.242 439.048 287.799 440.315 285.953 441.165C284.122 442.015 282.013 442.439 279.625 442.439C277.237 442.439 275.113 442.015 273.253 441.165C271.407 440.315 269.957 439.048 268.902 437.364C267.862 435.679 267.342 433.606 267.342 431.146V410.008H273.934V431.146C273.934 432.581 274.161 433.753 274.615 434.661C275.069 435.569 275.721 436.236 276.571 436.661C277.435 437.085 278.453 437.298 279.625 437.298C280.826 437.298 281.844 437.085 282.679 436.661C283.529 436.236 284.173 435.569 284.613 434.661C285.067 433.753 285.294 432.581 285.294 431.146V410.008ZM311.595 410.008V442H305.025V410.008H311.595ZM321.439 410.008V415.171H295.335V410.008H321.439ZM335.018 442H328.053L328.097 436.858H335.018C336.747 436.858 338.204 436.47 339.391 435.694C340.577 434.903 341.471 433.753 342.071 432.244C342.687 430.735 342.994 428.912 342.994 426.773V425.213C342.994 423.572 342.818 422.129 342.467 420.884C342.13 419.639 341.625 418.592 340.951 417.742C340.277 416.893 339.449 416.255 338.468 415.831C337.486 415.391 336.358 415.171 335.084 415.171H327.921V410.008H335.084C337.223 410.008 339.178 410.374 340.951 411.106C342.738 411.824 344.283 412.857 345.587 414.205C346.891 415.552 347.894 417.164 348.597 419.039C349.315 420.899 349.674 422.972 349.674 425.257V426.773C349.674 429.043 349.315 431.116 348.597 432.991C347.894 434.866 346.891 436.478 345.587 437.825C344.298 439.158 342.752 440.191 340.951 440.923C339.164 441.641 337.186 442 335.018 442ZM331.788 410.008V442H325.196V410.008H331.788ZM380.743 425.257V426.773C380.743 429.205 380.414 431.387 379.754 433.321C379.095 435.254 378.165 436.902 376.964 438.265C375.763 439.612 374.327 440.645 372.657 441.363C371.002 442.081 369.164 442.439 367.142 442.439C365.135 442.439 363.297 442.081 361.627 441.363C359.972 440.645 358.536 439.612 357.32 438.265C356.104 436.902 355.16 435.254 354.486 433.321C353.827 431.387 353.497 429.205 353.497 426.773V425.257C353.497 422.811 353.827 420.628 354.486 418.709C355.145 416.775 356.075 415.127 357.276 413.765C358.492 412.403 359.928 411.363 361.583 410.645C363.253 409.927 365.091 409.568 367.098 409.568C369.12 409.568 370.958 409.927 372.613 410.645C374.283 411.363 375.719 412.403 376.92 413.765C378.136 415.127 379.073 416.775 379.732 418.709C380.406 420.628 380.743 422.811 380.743 425.257ZM374.085 426.773V425.213C374.085 423.514 373.932 422.02 373.624 420.73C373.316 419.441 372.862 418.357 372.262 417.479C371.661 416.6 370.929 415.94 370.064 415.501C369.2 415.047 368.211 414.82 367.098 414.82C365.985 414.82 364.996 415.047 364.132 415.501C363.282 415.94 362.557 416.6 361.957 417.479C361.371 418.357 360.924 419.441 360.616 420.73C360.309 422.02 360.155 423.514 360.155 425.213V426.773C360.155 428.458 360.309 429.952 360.616 431.255C360.924 432.544 361.378 433.636 361.979 434.529C362.579 435.408 363.312 436.075 364.176 436.529C365.04 436.983 366.029 437.21 367.142 437.21C368.255 437.21 369.244 436.983 370.108 436.529C370.973 436.075 371.698 435.408 372.284 434.529C372.87 433.636 373.316 432.544 373.624 431.255C373.932 429.952 374.085 428.458 374.085 426.773ZM411.769 425.257V426.773C411.769 429.205 411.439 431.387 410.78 433.321C410.121 435.254 409.19 436.902 407.989 438.265C406.788 439.612 405.353 440.645 403.683 441.363C402.027 442.081 400.189 442.439 398.167 442.439C396.161 442.439 394.322 442.081 392.652 441.363C390.997 440.645 389.562 439.612 388.346 438.265C387.13 436.902 386.185 435.254 385.511 433.321C384.852 431.387 384.522 429.205 384.522 426.773V425.257C384.522 422.811 384.852 420.628 385.511 418.709C386.17 416.775 387.101 415.127 388.302 413.765C389.518 412.403 390.953 411.363 392.608 410.645C394.278 409.927 396.117 409.568 398.124 409.568C400.145 409.568 401.983 409.927 403.639 410.645C405.309 411.363 406.744 412.403 407.945 413.765C409.161 415.127 410.099 416.775 410.758 418.709C411.432 420.628 411.769 422.811 411.769 425.257ZM405.111 426.773V425.213C405.111 423.514 404.957 422.02 404.649 420.73C404.342 419.441 403.888 418.357 403.287 417.479C402.687 416.6 401.954 415.94 401.09 415.501C400.226 415.047 399.237 414.82 398.124 414.82C397.01 414.82 396.021 415.047 395.157 415.501C394.308 415.94 393.583 416.6 392.982 417.479C392.396 418.357 391.949 419.441 391.642 420.73C391.334 422.02 391.18 423.514 391.18 425.213V426.773C391.18 428.458 391.334 429.952 391.642 431.255C391.949 432.544 392.403 433.636 393.004 434.529C393.604 435.408 394.337 436.075 395.201 436.529C396.065 436.983 397.054 437.21 398.167 437.21C399.281 437.21 400.27 436.983 401.134 436.529C401.998 436.075 402.723 435.408 403.309 434.529C403.895 433.636 404.342 432.544 404.649 431.255C404.957 429.952 405.111 428.458 405.111 426.773ZM416.515 410.008H428.446C430.892 410.008 432.994 410.374 434.752 411.106C436.524 411.839 437.887 412.923 438.839 414.358C439.791 415.794 440.267 417.559 440.267 419.654C440.267 421.368 439.974 422.84 439.388 424.07C438.817 425.286 438.004 426.304 436.949 427.125C435.909 427.93 434.686 428.575 433.28 429.058L431.192 430.157H420.821L420.777 425.015H428.49C429.647 425.015 430.606 424.81 431.368 424.4C432.13 423.99 432.701 423.418 433.082 422.686C433.478 421.954 433.675 421.104 433.675 420.137C433.675 419.112 433.485 418.226 433.104 417.479C432.723 416.731 432.145 416.16 431.368 415.765C430.592 415.369 429.618 415.171 428.446 415.171H423.106V442H416.515V410.008ZM434.4 442L427.105 427.74L434.071 427.696L441.454 441.692V442H434.4ZM473.204 433.628C473.204 433.057 473.116 432.544 472.94 432.09C472.779 431.622 472.472 431.197 472.018 430.816C471.563 430.42 470.926 430.032 470.106 429.651C469.286 429.271 468.224 428.875 466.92 428.465C465.47 427.996 464.093 427.469 462.789 426.883C461.5 426.297 460.357 425.616 459.361 424.839C458.38 424.048 457.604 423.133 457.032 422.093C456.476 421.053 456.197 419.844 456.197 418.467C456.197 417.134 456.49 415.926 457.076 414.842C457.662 413.743 458.482 412.806 459.537 412.029C460.592 411.238 461.837 410.63 463.272 410.206C464.723 409.781 466.312 409.568 468.041 409.568C470.399 409.568 472.457 409.993 474.215 410.843C475.973 411.692 477.335 412.857 478.302 414.336C479.283 415.816 479.774 417.508 479.774 419.412H473.226C473.226 418.475 473.028 417.654 472.633 416.951C472.252 416.233 471.666 415.669 470.875 415.259C470.099 414.849 469.117 414.644 467.931 414.644C466.788 414.644 465.836 414.82 465.074 415.171C464.312 415.508 463.741 415.97 463.36 416.556C462.979 417.127 462.789 417.771 462.789 418.489C462.789 419.031 462.921 419.522 463.185 419.961C463.463 420.401 463.873 420.811 464.415 421.192C464.957 421.573 465.624 421.932 466.415 422.269C467.206 422.605 468.121 422.935 469.161 423.257C470.904 423.785 472.435 424.378 473.753 425.037C475.086 425.696 476.2 426.436 477.093 427.256C477.987 428.077 478.661 429.007 479.115 430.047C479.569 431.087 479.796 432.266 479.796 433.584C479.796 434.976 479.525 436.221 478.983 437.32C478.441 438.418 477.657 439.349 476.632 440.11C475.606 440.872 474.383 441.451 472.962 441.846C471.542 442.242 469.952 442.439 468.194 442.439C466.612 442.439 465.052 442.234 463.514 441.824C461.976 441.399 460.577 440.762 459.317 439.913C458.072 439.063 457.076 437.979 456.329 436.661C455.582 435.342 455.208 433.782 455.208 431.98H461.822C461.822 432.977 461.976 433.819 462.284 434.507C462.591 435.196 463.023 435.752 463.58 436.177C464.151 436.602 464.825 436.91 465.602 437.1C466.393 437.291 467.257 437.386 468.194 437.386C469.337 437.386 470.274 437.225 471.007 436.902C471.754 436.58 472.303 436.133 472.655 435.562C473.021 434.991 473.204 434.346 473.204 433.628ZM502.823 431.387H509.393C509.261 433.541 508.668 435.452 507.613 437.122C506.573 438.792 505.116 440.096 503.241 441.033C501.38 441.971 499.139 442.439 496.517 442.439C494.466 442.439 492.628 442.088 491.002 441.385C489.376 440.667 487.984 439.642 486.827 438.309C485.685 436.976 484.813 435.364 484.212 433.475C483.612 431.585 483.312 429.468 483.312 427.125V424.905C483.312 422.562 483.619 420.445 484.234 418.555C484.864 416.651 485.758 415.032 486.915 413.699C488.087 412.366 489.486 411.341 491.112 410.623C492.738 409.905 494.554 409.546 496.561 409.546C499.227 409.546 501.476 410.03 503.307 410.997C505.152 411.963 506.581 413.296 507.591 414.996C508.617 416.695 509.232 418.628 509.437 420.796H502.845C502.772 419.507 502.516 418.416 502.076 417.522C501.637 416.614 500.97 415.933 500.077 415.479C499.198 415.01 498.026 414.776 496.561 414.776C495.462 414.776 494.503 414.981 493.683 415.391C492.862 415.801 492.174 416.424 491.617 417.259C491.061 418.094 490.643 419.148 490.365 420.423C490.101 421.683 489.969 423.162 489.969 424.861V427.125C489.969 428.78 490.094 430.237 490.343 431.497C490.592 432.742 490.973 433.797 491.485 434.661C492.013 435.511 492.687 436.155 493.507 436.595C494.342 437.02 495.345 437.232 496.517 437.232C497.894 437.232 499.029 437.012 499.923 436.573C500.816 436.133 501.498 435.481 501.966 434.617C502.45 433.753 502.735 432.676 502.823 431.387ZM535.057 423.038V428.179H518.358V423.038H535.057ZM520.313 410.008V442H513.722V410.008H520.313ZM539.759 410.008V442H533.189V410.008H539.759ZM571.773 425.257V426.773C571.773 429.205 571.444 431.387 570.785 433.321C570.125 435.254 569.195 436.902 567.994 438.265C566.793 439.612 565.357 440.645 563.688 441.363C562.032 442.081 560.194 442.439 558.172 442.439C556.166 442.439 554.327 442.081 552.657 441.363C551.002 440.645 549.566 439.612 548.351 438.265C547.135 436.902 546.19 435.254 545.516 433.321C544.857 431.387 544.527 429.205 544.527 426.773V425.257C544.527 422.811 544.857 420.628 545.516 418.709C546.175 416.775 547.105 415.127 548.307 413.765C549.522 412.403 550.958 411.363 552.613 410.645C554.283 409.927 556.122 409.568 558.128 409.568C560.15 409.568 561.988 409.927 563.644 410.645C565.313 411.363 566.749 412.403 567.95 413.765C569.166 415.127 570.104 416.775 570.763 418.709C571.437 420.628 571.773 422.811 571.773 425.257ZM565.116 426.773V425.213C565.116 423.514 564.962 422.02 564.654 420.73C564.347 419.441 563.893 418.357 563.292 417.479C562.691 416.6 561.959 415.94 561.095 415.501C560.23 415.047 559.242 414.82 558.128 414.82C557.015 414.82 556.026 415.047 555.162 415.501C554.312 415.94 553.587 416.6 552.987 417.479C552.401 418.357 551.954 419.441 551.646 420.73C551.339 422.02 551.185 423.514 551.185 425.213V426.773C551.185 428.458 551.339 429.952 551.646 431.255C551.954 432.544 552.408 433.636 553.009 434.529C553.609 435.408 554.342 436.075 555.206 436.529C556.07 436.983 557.059 437.21 558.172 437.21C559.286 437.21 560.274 436.983 561.139 436.529C562.003 436.075 562.728 435.408 563.314 434.529C563.9 433.636 564.347 432.544 564.654 431.255C564.962 429.952 565.116 428.458 565.116 426.773ZM602.799 425.257V426.773C602.799 429.205 602.469 431.387 601.81 433.321C601.151 435.254 600.221 436.902 599.02 438.265C597.818 439.612 596.383 440.645 594.713 441.363C593.058 442.081 591.219 442.439 589.198 442.439C587.191 442.439 585.353 442.081 583.683 441.363C582.027 440.645 580.592 439.612 579.376 438.265C578.16 436.902 577.215 435.254 576.542 433.321C575.882 431.387 575.553 429.205 575.553 426.773V425.257C575.553 422.811 575.882 420.628 576.542 418.709C577.201 416.775 578.131 415.127 579.332 413.765C580.548 412.403 581.983 411.363 583.639 410.645C585.309 409.927 587.147 409.568 589.154 409.568C591.175 409.568 593.014 409.927 594.669 410.645C596.339 411.363 597.774 412.403 598.976 413.765C600.191 415.127 601.129 416.775 601.788 418.709C602.462 420.628 602.799 422.811 602.799 425.257ZM596.141 426.773V425.213C596.141 423.514 595.987 422.02 595.68 420.73C595.372 419.441 594.918 418.357 594.317 417.479C593.717 416.6 592.984 415.94 592.12 415.501C591.256 415.047 590.267 414.82 589.154 414.82C588.041 414.82 587.052 415.047 586.188 415.501C585.338 415.94 584.613 416.6 584.012 417.479C583.426 418.357 582.979 419.441 582.672 420.73C582.364 422.02 582.21 423.514 582.21 425.213V426.773C582.21 428.458 582.364 429.952 582.672 431.255C582.979 432.544 583.434 433.636 584.034 434.529C584.635 435.408 585.367 436.075 586.231 436.529C587.096 436.983 588.084 437.21 589.198 437.21C590.311 437.21 591.3 436.983 592.164 436.529C593.028 436.075 593.753 435.408 594.339 434.529C594.925 433.636 595.372 432.544 595.68 431.255C595.987 429.952 596.141 428.458 596.141 426.773ZM628.111 436.858V442H612.005V436.858H628.111ZM614.137 410.008V442H607.545V410.008H614.137Z" fill="white"/>
</svg>
